<svg version="1.2" xmlns="http://www.w3.org/2000/svg" viewBox="0 0 600 600" width="600" height="600">
	<title>Neues Projekt</title>
	<style>
		.s0 { fill: #fde8e9 } 
		.s1 { fill: #f9acb4 } 
		.s2 { fill: #f57e87 } 
		.s3 { fill: #f2575d } 
	</style>
	<g id="Layer 1">
		<path id="Form 2 copy 2" fill-rule="evenodd" class="s0" d="m299.9 600c-165.9 0-300.1-134.1-300.1-300.1 0-165.9 134.2-300.1 300.1-300.1 166 0 300.1 134.2 300.1 300.1 0 166-134.1 300.1-300.1 300.1z"/>
		<path id="Form 2 copy" fill-rule="evenodd" class="s1" d="m299.9 560.2c-143.9 0-260.2-116.4-260.2-260.3 0-143.9 116.3-260.2 260.2-260.2 143.9 0 260.3 116.3 260.3 260.2 0 143.9-116.4 260.3-260.3 260.3z"/>
		<path id="Form 2" fill-rule="evenodd" class="s2" d="m299.9 518.5c-120.9 0-218.6-97.7-218.6-218.6 0-120.9 97.7-218.6 218.6-218.6 120.9 0 218.6 97.7 218.6 218.6 0 120.9-97.7 218.6-218.6 218.6z"/>
		<path id="Form 1" fill-rule="evenodd" class="s3" d="m299.9 477.8c-98.4 0-177.9-79.5-177.9-177.9 0-98.4 79.5-177.9 177.9-177.9 98.4 0 177.9 79.5 177.9 177.9 0 98.4-79.5 177.9-177.9 177.9z"/>
		<g id="Ordner 1">
		</g>
	</g>
</svg>